<?xml version="1.0" encoding="UTF-8"?>
<svg xmlns="http://www.w3.org/2000/svg" xmlns:xlink="http://www.w3.org/1999/xlink" width="72pt" height="18pt" viewBox="0 0 72 18" version="1.1">
<g id="surface149">
<rect x="0" y="0" width="72" height="18" style="fill:rgb(100%,100%,100%);fill-opacity:1;stroke:none;"/>
<path style="fill:none;stroke-width:1.066978;stroke-linecap:butt;stroke-linejoin:round;stroke:rgb(97.254902%,46.27451%,42.745098%);stroke-opacity:1;stroke-miterlimit:10;" d="M 3.273438 16.4375 L 4.382813 17.183594 L 5.492188 16.4375 L 6.601563 16.011719 L 7.710938 16.378906 L 8.820313 16.152344 L 9.929688 15.800781 L 11.039063 15.324219 L 13.257813 15.695313 "/>
<path style="fill:none;stroke-width:1.066978;stroke-linecap:butt;stroke-linejoin:round;stroke:rgb(0%,72.941176%,21.960784%);stroke-opacity:1;stroke-miterlimit:10;" d="M 25.460938 9.742188 L 28.789063 10.488281 L 31.007813 10.488281 L 32.117188 8.257813 L 33.226563 10.488281 L 34.335938 9.742188 L 35.445313 8.753906 L 36.554688 8.851563 L 37.664063 9 L 38.773438 8.070313 L 39.882813 8.257813 L 40.992188 8.070313 L 42.101563 6.875 L 43.210938 7.511719 L 44.320313 7.363281 L 45.429688 6.023438 L 46.539063 6.769531 L 47.648438 5.28125 L 48.757813 6.023438 "/>
<path style="fill:none;stroke-width:1.066978;stroke-linecap:butt;stroke-linejoin:round;stroke:rgb(38.039216%,61.176471%,100%);stroke-opacity:1;stroke-miterlimit:10;" d="M 42.101563 5.28125 L 45.429688 4.539063 L 46.539063 4.042969 L 47.648438 4.539063 L 48.757813 3.261719 L 49.867188 1.933594 L 50.976563 2.304688 L 52.085938 1.5625 L 53.195313 3.792969 L 54.304688 2.675781 L 55.414063 0.816406 L 56.523438 4.042969 L 57.632813 1.5625 L 58.742188 1.933594 L 59.851563 1.3125 L 62.070313 4.539063 L 63.179688 3.050781 L 65.398438 2.304688 L 66.507813 2.304688 L 68.726563 0.816406 "/>
</g>
</svg>
